{"title":"Sucker Punch 2011 Extended Cut 720p BRRip x264 RmD","uid":11379864,"size":2150997004,"categoryP":"video","categoryS":"hd___movies","magnet":"?xt=urn:btih:28c1fa456c922b049a2a3967ee8f126d815445ed&amp;dn=Sucker+Punch+2011+Extended+Cut+720p+BRRip+x264+RmD&amp;tr=udp%3A%2F%2Ftracker.openbittorrent.com%3A80&amp;tr=udp%3A%2F%2Fopen.demonii.com%3A1337&amp;tr=udp%3A%2F%2Ftracker.coppersurfer.tk%3A6969&amp;tr=udp%3A%2F%2Fexodus.desync.com%3A6969","seeders":2,"leechers":0,"uploader":"RajMahal","files":-1,"time":1415202724,"description":"Screens : \n &lt;a href=&quot;\nhttp://s9.postimg.org/tiw5mupof/vlcsnap_2014_11_05_13h46m33s234.png&quot; rel=&quot;nofollow&quot; target=&quot;_NEW&quot;&gt;\nhttp://s9.postimg.org/tiw5mupof/vlcsnap_2014_11_05_13h46m33s234.png&lt;/a&gt;\n &lt;a href=&quot;\nhttp://s9.postimg.org/rtn2es9z3/vlcsnap_2014_11_05_13h47m38s148.png&quot; rel=&quot;nofollow&quot; target=&quot;_NEW&quot;&gt;\nhttp://s9.postimg.org/rtn2es9z3/vlcsnap_2014_11_05_13h47m38s148.png&lt;/a&gt;\n &lt;a href=&quot;\nhttp://s9.postimg.org/rd1uscm7z/vlcsnap_2014_11_05_13h48m15s9.png&quot; rel=&quot;nofollow&quot; target=&quot;_NEW&quot;&gt;\nhttp://s9.postimg.org/rd1uscm7z/vlcsnap_2014_11_05_13h48m15s9.png&lt;/a&gt;\n &lt;a href=&quot;\nhttp://s9.postimg.org/t7epa398f/vlcsnap_2014_11_05_13h49m12s65.png&quot; rel=&quot;nofollow&quot; target=&quot;_NEW&quot;&gt;\nhttp://s9.postimg.org/t7epa398f/vlcsnap_2014_11_05_13h49m12s65.png&lt;/a&gt;\n &lt;a href=&quot;\nhttp://s9.postimg.org/98yu7pojj/vlcsnap_2014_11_05_14h04m00s238.png&quot; rel=&quot;nofollow&quot; target=&quot;_NEW&quot;&gt;\nhttp://s9.postimg.org/98yu7pojj/vlcsnap_2014_11_05_14h04m00s238.png&lt;/a&gt;\n\n\nGeneral\nUnique ID                                : 226812338959522548015217197847707114234 (0xAAA277B06E32CE10AD15E435EDEBDAFA)\nComplete name                            : E:Sucker Punch 2011 720p BRRip x264 RmD.mp4\nFormat                                   : Matroska\nFormat version                           : Version 4 / Version 2\nFile size                                : 2.00 GiB\nDuration                                 : 2h 7mn\nOverall bit rate                         : 2 249 Kbps\nEncoded date                             : UTC 2014-11-05 14:37:43\nWriting application                      : mkvmerge v7.3.0 ('Nouages') 64bit built on Oct 22 2014 18:53:34\nWriting library                          : libebml v1.3.0 + libmatroska v1.4.1\n_STATISTICS_WRITING_APP                  : mkvmerge v7.3.0 ('Nouages') 64bit built on Oct 22 2014 18:53:34\n_STATISTICS_WRITING_DATE_UTC             : 2014-11-05 14:37:43\n_STATISTICS_TAGS                         : BPS DURATION NUMBER_OF_FRAMES NUMBER_OF_BYTES\nDURATION                                 : 02:07:29.921000000\nNUMBER_OF_FRAMES                         : 219632\nNUMBER_OF_BYTES                          : 428386992\n\nVideo\nID                                       : 1\nFormat                                   : AVC\nFormat/Info                              : Advanced Video Codec\nFormat profile                           : &lt;a class=&quot;__cf_email__&quot; href=&quot;/cdn-cgi/l/email-protection&quot; data-cfemail=&quot;da92b3bdb29a96e9f4eb&quot;&gt;[email&amp;#160;protected]&lt;/a&gt;&lt;script cf-hash='f9e31' type=&quot;text/javascript&quot;&gt;\n/* &lt;![CDATA[ */!function(){try{var t=&quot;currentScript&quot;in document?document.currentScript:function(){for(var t=document.getElementsByTagName(&quot;script&quot;),e=t.length;e--;)if(t[e].getAttribute(&quot;cf-hash&quot;))return t[e]}();if(t&amp;&amp;t.previousSibling){var e,r,n,i,c=t.previousSibling,a=c.getAttribute(&quot;data-cfemail&quot;);if(a){for(e=&quot;&quot;,r=parseInt(a.substr(0,2),16),n=2;a.length-n;n+=2)i=parseInt(a.substr(n,2),16)^r,e+=String.fromCharCode(i);e=document.createTextNode(e),c.parentNode.replaceChild(e,c)}}}catch(u){}}();/* ]]&gt; */&lt;/script&gt;\nFormat settings, CABAC                   : No\nFormat settings, ReFrames                : 4 frames\nCodec ID                                 : V_MPEG4/ISO/AVC\nDuration                                 : 2h 7mn\nBit rate                                 : 1 799 Kbps\nWidth                                    : 1 272 pixels\nHeight                                   : 528 pixels\nDisplay aspect ratio                     : 2.40:1\nFrame rate mode                          : Constant\nFrame rate                               : 23.976 fps\nColor space                              : YUV\nChroma subsampling                       : 4:2:0\nBit depth                                : 8 bits\nScan type                                : Progressive\nBits/(Pixel*Frame)                       : 0.112\nStream size                              : 1.56 GiB (78%)\nWriting library                          : x264 core 142 r2431 ac76440\nEncoding settings                        : cabac=0 / ref=3 / deblock=0:0:0 / analyse=0x3:0x133 / me=hex / subme=4 / psy=1 / psy_rd=1.00:0.00 / mixed_ref=1 / me_range=16 / chroma_me=1 / trellis=0 / 8x8dct=1 / cqm=0 / deadzone=21,11 / fast_pskip=1 / chroma_qp_offset=0 / threads=6 / lookahead_threads=1 / sliced_threads=0 / nr=0 / decimate=1 / interlaced=0 / bluray_compat=0 / constrained_intra=0 / bframes=3 / b_pyramid=2 / b_adapt=1 / b_bias=0 / direct=3 / weightb=0 / open_gop=0 / weightp=0 / keyint=240 / keyint_min=23 / scenecut=40 / intra_refresh=0 / rc_lookahead=40 / rc=2pass / mbtree=1 / bitrate=1799 / ratetol=1.0 / qcomp=0.60 / qpmin=10 / qpmax=51 / qpstep=4 / cplxblur=20.0 / qblur=0.5 / ip_ratio=1.40 / aq=1:1.00 / zones=175288,183450,q=40\nDefault                                  : Yes\nForced                                   : No\n\nAudio\nID                                       : 2\nFormat                                   : AC-3\nFormat/Info                              : Audio Coding 3\nMode extension                           : CM (complete main)\nFormat settings, Endianness              : Big\nCodec ID                                 : A_AC3\nDuration                                 : 2h 7mn\nBit rate mode                            : Constant\nBit rate                                 : 448 Kbps\nChannel(s)                               : 6 channels\nChannel positions                        : Front: L C R, Side: L R, LFE\nSampling rate                            : 44.1 KHz\nBit depth                                : 16 bits\nCompression mode                         : Lossy\nStream size                              : 409 MiB (20%)\nLanguage                                 : English\nDefault                                  : Yes\nForced                                   : No","torrent":{"xt":"urn:btih:28c1fa456c922b049a2a3967ee8f126d815445ed","amp;dn":"Sucker+Punch+2011+Extended+Cut+720p+BRRip+x264+RmD","amp;tr":["udp%3A%2F%2Ftracker.openbittorrent.com%3A80","udp%3A%2F%2Fopen.demonii.com%3A1337","udp%3A%2F%2Ftracker.coppersurfer.tk%3A6969","udp%3A%2F%2Fexodus.desync.com%3A6969"],"infoHash":"28c1fa456c922b049a2a3967ee8f126d815445ed","infoHashBuffer":{"type":"Buffer","data":[40,193,250,69,108,146,43,4,154,42,57,103,238,143,18,109,129,84,69,237]},"announce":[],"urlList":[]}}